<?xml version="1.0" encoding="UTF-8"?>
<svg height="600" width="800" xmlns="http://www.w3.org/2000/svg" xmlns:xlink="http://www.w3.org/1999/xlink">
    <g id="Notes" font-family="'LucidaGrande', 'Lucida Grande', sans-serif" font-size="13">
        <rect fill="white" height="600.0" width="800.0" x="0.0" y="0.0" />
        <g font-size="13">
            <text x="18.0" y="176.0">Small</text>
            <text x="18.0" y="376.0">Medium</text>
            <text x="18.0" y="576.0">Large</text>
        </g>
        <g font-size="9">
            <text x="250.0" y="30.0">Ultralight</text>
            <text x="450.0" y="30.0">Regular</text>
            <text x="650.0" y="30.0">Black</text>
            <text id="template-version" fill="#505050" text-anchor="end" x="785.0" y="575.0">Template v.3.0</text>
            <a href="https://wangchujiang.com/#/app">
                <text fill="#505050" text-anchor="end" x="785.0" y="590.0">https://wangchujiang.com/#/app</text>
            </a>
        </g>
    </g>
    <g id="Guides" stroke="rgb(39, 170, 225)" stroke-width="0.5">
        <path id="Capline-S" d="M18,76 l800,0" />
        <path id="H-reference" d="M85,145.755 L87.685,145.755 L113.369,79.287 L114.052,79.287 L114.052,76 L112.148,76 L85,145.755 Z M95.693,121.536 L130.996,121.536 L130.263,119.313 L96.474,119.313 L95.693,121.536 Z M139.15,145.755 L141.787,145.755 L114.638,76 L113.466,76 L113.466,79.287 L139.15,145.755 Z" stroke="none" />
        <path id="Baseline-S" d="M18,146 l800,0" />
        <path id="left-margin-Ultralight-S" d="M220,56 l0,110" />
        <path id="right-margin-Ultralight-S" d="M310,56 l0,110" />
        <path id="left-margin-Regular-S" d="M420,56 l0,110" />
        <path id="right-margin-Regular-S" d="M510,56 l0,110" />
        <path id="left-margin-Black-S" d="M620,56 l0,110" />
        <path id="right-margin-Black-S" d="M710,56 l0,110" />
        <path id="Capline-M" d="M18,276 l800,0" />
        <path id="Baseline-M" d="M18,346 l800,0" />
        <path id="Capline-L" d="M18,476 l800,0" />
        <path id="Baseline-L" d="M18,546 l800,0" />
    </g>
    <g id="Symbols">
        <g id="Ultralight-S">
            <path d="M265,146 C262.262,127.925 248.075,113.738 230,111 C248.075,108.262 262.262,94.075 265,76 C267.739,94.074 281.926,108.261 300,111 C281.926,113.739 267.739,127.926 265,146" />
        </g>
        <g id="Regular-S">
            <path d="M465,146 C462.262,127.925 448.075,113.738 430,111 C448.075,108.262 462.262,94.075 465,76 C467.739,94.074 481.926,108.261 500,111 C481.926,113.739 467.739,127.926 465,146" />
        </g>
        <g id="Black-S">
            <path d="M665,146 C662.262,127.925 648.075,113.738 630,111 C648.075,108.262 662.262,94.075 665,76 C667.739,94.074 681.926,108.261 700,111 C681.926,113.739 667.739,127.926 665,146" />
        </g>
    </g>
</svg>